<svg xmlns="http://www.w3.org/2000/svg" xmlns:xlink="http://www.w3.org/1999/xlink" viewBox="0 0 100 100"><defs><style>.cls-1{fill:url(#radial-gradient);}.cls-2{fill:url(#linear-gradient);}.cls-3{fill:url(#linear-gradient-2);}.cls-4{fill:url(#linear-gradient-3);}</style><radialGradient id="radial-gradient" cx="49.14" cy="111.73" r="20.7" gradientTransform="translate(144.51 210.44) rotate(180) scale(1.9 1.38)" gradientUnits="userSpaceOnUse"><stop offset="0.43" stop-color="#130c0e" stop-opacity="0.95"/><stop offset="1" stop-color="#fff" stop-opacity="0"/></radialGradient><linearGradient id="linear-gradient" x1="56.58" y1="6.72" x2="57.48" y2="62.88" gradientUnits="userSpaceOnUse"><stop offset="0.17" stop-color="#00ffdf"/><stop offset="1" stop-color="#000074"/></linearGradient><linearGradient id="linear-gradient-2" x1="54.81" y1="10.78" x2="55.71" y2="66.94" gradientTransform="translate(31.94 118.44) rotate(-120)" xlink:href="#linear-gradient"/><linearGradient id="linear-gradient-3" x1="55.06" y1="-8.04" x2="55.96" y2="48.12" gradientTransform="matrix(-0.57, 0.82, -0.82, -0.57, 108.27, 24.27)" xlink:href="#linear-gradient"/></defs><g id="Layer_2" data-name="Layer 2"><ellipse class="cls-1" cx="50" cy="79.67" rx="21.67" ry="15.7"/><path class="cls-2" d="M81.22,51A30.92,30.92,0,0,1,81,54.38a9,9,0,0,0-.74-4A12.94,12.94,0,0,0,77,45.94l-.05,0L53.29,30.38l-.22-.14-8.39-5.5V61.48a5.58,5.58,0,1,1-11.16,0V31a2.17,2.17,0,0,1,0-.26A10.28,10.28,0,0,1,35,25.11a6.32,6.32,0,0,1,4.07-2.86V22l.9-.33a30.31,30.31,0,0,1,4.68-1.21A31,31,0,0,1,80.39,43.89a29.75,29.75,0,0,1,.74,4.75c0,.41.05.83.07,1.25S81.22,50.65,81.22,51Z"/><path class="cls-3" d="M39.92,22.09a29,29,0,0,1,3-1.52,9,9,0,0,0-3.06,2.62,13,13,0,0,0-2.23,5.09.28.28,0,0,0,0,.06L36,56.6v.26l-.57,10L67.24,48.51a5.58,5.58,0,0,1,5.58,9.66L46.45,73.4a2.53,2.53,0,0,1-.23.12,10.25,10.25,0,0,1-5.65,1.53A6.33,6.33,0,0,1,36.06,73l-.22.13-.73-.61a31.77,31.77,0,0,1-6.56-8,31.06,31.06,0,0,1,5.6-38.14,29.14,29.14,0,0,1,3.75-3L39,22.67Z"/><path class="cls-4" d="M33.12,69.21a31.8,31.8,0,0,1-2.66-2,9.12,9.12,0,0,0,3.68,1.64,13,13,0,0,0,5.56-.16l.06,0L66,58l.24-.1,9.3-3.77L45.29,33.21A5.58,5.58,0,1,1,51.64,24l25,17.31a1.66,1.66,0,0,1,.21.16A10.28,10.28,0,0,1,80.7,46a6.3,6.3,0,0,1,0,5l.2.14L80.7,52A30.54,30.54,0,0,1,79,56.53,31,31,0,0,1,39.46,72.59a29.69,29.69,0,0,1-4.33-2.09l-1.07-.66C33.75,69.64,33.43,69.43,33.12,69.21Z"/></g></svg>